<?xml version="1.0" standalone="no"?>
<!DOCTYPE svg PUBLIC "-//W3C//DTD SVG 20010904//EN"
 "http://www.w3.org/TR/2001/REC-SVG-20010904/DTD/svg10.dtd">
<svg version="1.0" xmlns="http://www.w3.org/2000/svg"
 width="2000.000000pt" height="2000.000000pt" viewBox="0 0 2000.000000 2000.000000"
 preserveAspectRatio="xMidYMid meet">
<metadata>
Created by potrace 1.14, written by Peter Selinger 2001-2017
</metadata>
<g transform="translate(0.000000,2000.000000) scale(0.100000,-0.100000)"
fill="#000000" stroke="none">
<path d="M4825 13993 c-170 -1 -1052 -7 -1958 -13 -907 -5 -1654 -13 -1662
-17 -7 -5 -263 -359 -569 -787 -403 -565 -556 -787 -556 -806 0 -42 30 -61
102 -67 77 -6 103 -18 117 -52 7 -16 12 -185 13 -446 l3 -420 31 -81 c80 -207
232 -352 429 -410 70 -20 214 -23 290 -5 199 47 380 223 450 439 22 67 42 66
66 -5 68 -202 228 -364 419 -424 99 -32 241 -30 343 5 188 64 331 205 397 394
37 104 50 103 91 -11 29 -80 109 -196 176 -256 65 -58 162 -112 248 -137 80
-23 220 -23 300 0 200 59 362 218 427 419 28 87 44 85 79 -11 103 -277 380
-459 644 -423 152 22 259 76 363 186 69 72 126 168 157 263 9 28 20 52 23 52
17 -1 30 -18 42 -55 52 -164 180 -314 330 -390 131 -66 295 -78 435 -31 185
63 329 208 395 396 13 36 27 69 31 74 13 15 35 -10 49 -56 74 -251 320 -439
575 -442 174 -1 303 52 431 179 92 92 143 180 174 301 18 70 20 112 20 470 0
247 4 403 10 420 16 41 39 53 102 54 31 0 68 4 81 9 27 11 52 60 43 88 -3 10
-84 136 -179 281 -94 144 -320 488 -502 765 -181 276 -342 514 -356 530 l-27
27 -884 -2 c-486 -2 -1022 -4 -1193 -5z"/>
<path d="M15910 12786 c0 -27 21 -36 88 -36 l43 0 -7 -62 c-3 -35 -41 -425
-83 -868 l-77 -805 -66 0 c-62 0 -67 -2 -71 -23 -3 -13 1 -25 7 -27 6 -2 142
-15 301 -30 160 -14 314 -29 343 -32 51 -6 52 -5 52 20 0 23 -5 26 -50 32 -41
6 -50 10 -50 27 0 48 61 658 71 712 28 153 118 266 212 266 48 0 70 -28 75
-98 2 -31 -15 -247 -37 -478 -23 -232 -41 -429 -41 -437 0 -11 -11 -13 -49 -9
-44 4 -50 2 -56 -18 -4 -12 -5 -23 -3 -25 2 -2 158 -18 346 -36 295 -28 345
-31 353 -18 16 25 3 34 -61 42 -36 4 -65 9 -67 11 -1 1 13 162 32 357 38 392
42 510 20 586 -44 147 -180 232 -375 234 -162 1 -227 -34 -323 -174 -9 -13 0
114 29 415 22 238 40 435 38 437 -3 3 -533 58 -586 61 -5 0 -8 -11 -8 -24z"/>
<path d="M9342 12180 c-40 -9 -76 -20 -79 -24 -4 -3 -62 -406 -129 -894 -68
-488 -123 -888 -123 -888 -1 -1 -18 -5 -38 -8 -75 -14 -85 -22 -64 -54 6 -10
41 -6 172 23 210 46 199 42 199 71 0 29 1 28 -95 7 -41 -9 -78 -13 -82 -10 -3
4 9 128 27 275 l33 269 235 52 c129 28 236 50 237 49 2 -2 66 -108 144 -236
86 -143 136 -234 128 -237 -6 -2 -37 -9 -67 -15 -92 -20 -92 -19 -84 -43 3
-12 8 -23 9 -25 2 -2 177 35 389 82 212 47 388 86 391 86 3 0 5 12 5 26 0 26
-2 26 -43 21 -24 -3 -50 -9 -59 -12 -11 -5 -128 170 -499 749 -434 677 -487
755 -509 755 -14 -1 -58 -9 -98 -19z m94 -802 l164 -273 -213 -47 c-116 -26
-212 -48 -212 -48 -1 -1 83 646 84 649 2 9 20 -19 177 -281z"/>
<path d="M13845 12189 c-252 -26 -385 -130 -385 -300 0 -79 11 -113 48 -153
38 -40 82 -56 157 -56 138 0 225 75 225 193 0 82 -15 115 -53 119 -26 2 -32 9
-40 37 -12 48 -1 79 36 101 46 29 107 26 137 -5 39 -42 51 -114 57 -336 l6
-206 -124 -6 c-281 -14 -425 -69 -480 -184 -18 -38 -23 -64 -22 -128 1 -149
62 -236 196 -276 93 -29 271 -24 333 9 47 24 84 64 103 111 l13 31 28 -43 c54
-85 154 -121 319 -115 211 8 286 84 307 313 6 72 6 75 -14 75 -16 0 -22 -8
-26 -32 -25 -176 -40 -211 -94 -216 -59 -6 -63 16 -72 402 -9 369 -15 414 -69
511 -73 131 -282 186 -586 154z m193 -831 c-3 -155 -6 -177 -26 -215 -37 -71
-87 -88 -114 -39 -18 31 -23 267 -8 322 17 58 67 104 116 104 l36 0 -4 -172z"/>
<path d="M15095 12176 c-83 -20 -141 -54 -199 -116 -71 -77 -98 -145 -104
-266 -6 -132 13 -190 87 -264 69 -69 171 -121 346 -175 212 -65 273 -111 262
-197 -13 -95 -80 -133 -232 -131 -156 2 -263 50 -336 150 -35 49 -99 187 -99
214 0 22 -28 45 -39 33 -5 -5 -12 -107 -15 -226 -7 -202 -6 -218 10 -218 9 0
32 18 51 40 40 46 72 52 125 21 62 -37 185 -71 275 -77 206 -14 372 64 443
209 82 170 54 392 -63 493 -62 52 -180 108 -327 155 -74 23 -151 50 -171 60
-111 55 -119 171 -16 226 24 13 57 18 132 18 93 0 105 -2 167 -33 84 -41 147
-110 196 -214 26 -54 42 -78 55 -78 14 0 17 9 17 48 0 26 3 111 7 190 5 124 4
142 -9 142 -9 0 -27 -15 -42 -34 -14 -19 -35 -37 -45 -41 -11 -3 -58 9 -111
30 -144 56 -253 68 -365 41z"/>
<path d="M12685 12126 c-109 -28 -163 -71 -219 -175 l-33 -62 -7 97 c-4 54 -8
99 -9 100 -1 1 -123 -9 -272 -22 -148 -13 -282 -23 -297 -24 -23 0 -28 -4 -28
-26 l0 -27 70 5 c48 4 70 2 70 -6 1 -6 20 -245 44 -531 31 -377 40 -522 32
-527 -6 -4 -34 -8 -63 -8 -56 0 -67 -8 -56 -37 8 -18 16 -18 333 8 179 16 335
28 348 28 17 1 22 7 22 27 0 25 -2 26 -55 22 -32 -2 -55 1 -55 7 0 6 -14 172
-30 370 -24 290 -28 372 -19 424 21 136 90 231 168 231 45 0 58 -12 76 -74 15
-49 91 -923 82 -933 -3 -3 -26 -8 -52 -10 -44 -6 -53 -15 -36 -41 6 -10 72 -8
347 14 186 15 343 30 347 35 5 4 6 15 3 25 -5 16 -16 19 -73 19 l-67 0 -32
388 c-18 214 -38 412 -45 440 -27 116 -88 201 -177 244 -50 24 -70 28 -162 30
-61 1 -126 -3 -155 -11z"/>
<path d="M11225 11976 c-111 -27 -188 -85 -233 -176 l-30 -60 -12 73 c-16 100
-16 99 -47 93 -16 -3 -136 -22 -268 -41 -287 -43 -285 -42 -285 -58 1 -31 15
-37 75 -27 32 5 60 9 61 7 1 -1 58 -368 125 -815 100 -663 120 -815 109 -822
-7 -4 -37 -11 -67 -15 -49 -6 -53 -8 -47 -28 3 -12 8 -24 10 -25 1 -2 200 26
441 62 241 36 441 66 446 66 4 0 7 11 7 25 0 31 -6 31 -165 5 -66 -11 -127
-20 -135 -20 -12 0 -20 26 -33 118 -10 64 -30 202 -46 305 -28 185 -28 187 -7
168 12 -10 37 -27 56 -37 75 -39 295 -11 411 52 58 32 138 114 168 172 85 166
60 522 -51 747 -96 194 -278 281 -483 231z m-34 -139 c42 -33 65 -95 98 -267
66 -351 85 -633 47 -697 -42 -70 -129 -70 -193 -1 -45 48 -63 114 -103 375
-47 301 -51 403 -20 486 35 94 118 145 171 104z"/>
<path d="M17750 11905 c-197 -45 -332 -170 -400 -372 -68 -205 -56 -424 33
-576 97 -164 337 -269 616 -268 174 1 282 40 382 140 103 103 173 289 186 491
19 307 -116 487 -427 567 -121 31 -296 39 -390 18z m335 -75 c58 -54 58 -162
-1 -530 -76 -479 -103 -550 -215 -550 -104 0 -143 91 -122 283 17 146 79 520
103 613 26 102 65 180 98 199 37 21 107 13 137 -15z"/>
<path d="M18747 11753 c-4 -3 -7 -14 -7 -23 0 -13 15 -21 60 -30 33 -7 60 -18
60 -24 0 -13 -346 -1557 -356 -1589 -5 -16 -12 -18 -42 -11 -68 14 -97 11
-100 -11 -2 -19 30 -27 437 -119 242 -54 444 -95 450 -91 6 3 11 14 11 24 0
14 -26 23 -153 51 l-153 34 63 286 c36 157 66 291 69 299 3 11 10 6 23 -15 47
-78 137 -121 296 -143 289 -40 480 136 560 519 66 314 -3 537 -195 634 -160
80 -320 68 -431 -32 -47 -42 -52 -44 -47 -22 21 86 31 141 27 144 -4 4 -542
126 -556 126 -5 0 -13 -3 -16 -7z m770 -258 c58 -40 52 -149 -23 -482 -95
-423 -148 -529 -257 -509 -44 8 -93 62 -103 112 -4 20 -4 66 -2 102 7 84 113
552 139 612 60 138 175 215 246 165z"/>
<path d="M1440 10425 c-159 -74 -281 -105 -446 -112 -149 -6 -260 6 -374 43
-93 30 -95 30 -125 -1 l-25 -24 0 -1959 c0 -1952 0 -1959 -20 -1985 l-21 -26
-189 -3 c-166 -3 -192 -5 -207 -21 -15 -15 -19 -39 -21 -143 -4 -136 0 -164
24 -188 14 -15 391 -16 3985 -16 3956 0 3969 0 3989 20 18 18 20 33 20 160 0
136 -1 142 -25 165 -24 25 -27 25 -198 25 -155 0 -176 2 -190 18 -16 17 -17
175 -19 1986 l-3 1968 -29 25 c-32 28 -27 28 -171 -13 -93 -26 -113 -28 -280
-28 -163 0 -189 3 -278 27 -55 14 -152 52 -217 83 l-119 57 -80 -42 c-340
-175 -735 -175 -1073 1 l-77 40 -118 -55 c-163 -77 -284 -107 -449 -114 -214
-9 -377 24 -569 118 l-104 51 -103 -51 c-189 -92 -358 -127 -572 -118 -158 6
-284 36 -413 97 -163 78 -139 75 -239 26 -351 -170 -733 -168 -1063 5 -41 21
-77 39 -80 39 -3 0 -58 -25 -121 -55z m2030 -835 c20 -20 20 -33 20 -1594 l0
-1575 -22 -15 c-20 -14 -137 -16 -1056 -16 l-1033 0 -24 25 -25 24 0 1556 c0
1572 0 1585 34 1607 6 4 478 8 1049 8 1024 0 1037 0 1057 -20z m3217 -213 c17
-17 18 -60 21 -701 2 -680 2 -683 -19 -709 l-20 -27 -1040 0 c-1026 0 -1039 0
-1059 20 -20 20 -20 33 -20 705 l0 686 25 25 24 24 1035 -2 c978 -3 1036 -4
1053 -21z"/>
<path d="M10975 9596 c-201 -38 -373 -158 -446 -309 -71 -150 -58 -330 38
-506 61 -114 75 -127 156 -148 96 -24 276 -24 367 1 227 62 417 245 465 447
29 123 13 254 -44 368 -50 98 -72 117 -154 136 -97 23 -293 28 -382 11z m1
-184 c130 -95 205 -245 206 -410 0 -42 -5 -97 -12 -122 -15 -58 -57 -130 -75
-130 -8 0 -41 25 -75 56 -67 63 -119 157 -140 255 -19 84 -9 250 19 322 12 31
26 57 30 57 4 0 26 -13 47 -28z"/>
<path d="M11681 9528 c12 -24 40 -72 63 -108 l40 -64 4 -221 c3 -163 0 -252
-12 -342 -9 -67 -16 -126 -16 -132 0 -7 38 -11 109 -11 l109 0 7 143 c4 78 3
192 -2 252 l-8 110 95 -95 c145 -145 330 -287 491 -378 52 -29 64 -32 146 -32
l90 0 6 137 c9 172 9 696 1 746 l-7 37 -109 0 c-110 0 -110 0 -104 -22 31
-112 69 -458 49 -458 -16 0 -145 111 -226 194 -78 80 -189 220 -210 264 -10
22 -10 22 -274 22 l-263 0 21 -42z"/>
<path d="M13016 9539 c-16 -82 -25 -404 -16 -573 5 -99 12 -193 14 -210 3 -17
8 -48 11 -68 l6 -38 448 0 448 0 12 26 c15 34 61 210 61 235 0 17 -9 19 -85
21 -47 1 -97 2 -111 2 -21 1 -28 -6 -39 -38 -17 -49 -59 -92 -103 -107 -37
-12 -201 -7 -223 7 -27 16 15 356 76 619 19 82 35 151 35 152 0 2 -119 3 -264
3 l-263 0 -7 -31z"/>
<path d="M14155 9478 c24 -311 22 -654 -5 -770 -5 -24 -10 -46 -10 -50 0 -5
101 -8 224 -8 l223 0 7 53 c33 261 67 832 51 857 -4 6 -98 10 -252 10 l-246 0
8 -92z"/>
<path d="M14805 9520 c14 -28 42 -76 62 -108 l37 -57 4 -210 c3 -155 0 -244
-12 -342 -9 -73 -16 -137 -16 -143 0 -6 40 -10 108 -10 l109 0 7 144 c6 130 2
264 -9 338 -4 23 8 14 83 -60 150 -151 340 -299 504 -391 53 -30 61 -32 145
-29 l88 3 6 105 c9 142 10 692 3 758 l-7 52 -108 0 c-60 0 -109 -2 -109 -3 0
-2 9 -46 20 -98 21 -101 47 -366 37 -376 -10 -10 -114 75 -212 172 -86 87
-206 235 -228 282 l-10 23 -264 0 -263 0 25 -50z"/>
<path d="M16173 9493 c-13 -127 -10 -604 6 -730 l14 -113 451 0 452 0 22 68
c19 60 53 205 49 208 -1 1 -52 4 -113 6 l-112 5 -11 -37 c-15 -50 -47 -89 -87
-106 -35 -15 -142 -18 -209 -6 l-40 7 4 85 c4 92 16 127 57 159 32 25 77 27
154 6 105 -28 113 -25 159 61 23 42 40 78 38 81 -2 2 -63 6 -134 10 -126 6
-132 5 -187 -20 l-58 -27 6 38 c4 20 16 83 28 139 l21 103 34 6 c19 4 61 4 95
2 52 -4 65 -9 85 -33 21 -24 24 -34 18 -76 l-7 -49 96 0 c81 0 97 3 105 18 11
21 51 215 51 248 l0 24 -489 0 -489 0 -9 -77z"/>
<path d="M10775 8323 c-69 -11 -94 -19 -109 -36 -28 -33 -106 -194 -106 -218
0 -12 16 -56 36 -97 46 -96 135 -186 299 -304 66 -47 137 -103 157 -125 40
-41 72 -105 82 -165 6 -34 5 -38 -19 -44 -44 -11 -113 6 -257 62 -133 53 -253
84 -322 84 -32 0 -34 -3 -84 -109 -29 -59 -52 -113 -52 -120 0 -8 9 -7 29 3
85 45 159 41 366 -18 66 -18 152 -39 192 -46 70 -11 74 -11 172 23 132 45 246
114 343 207 l78 75 -11 40 c-26 96 -116 223 -215 304 -24 20 -97 65 -163 100
-67 36 -145 83 -175 105 -51 39 -126 119 -126 136 0 12 136 21 221 14 43 -4
79 -10 79 -13 0 -3 -7 -30 -14 -58 l-14 -53 93 0 c153 0 148 -3 184 105 36
108 37 122 14 129 -119 36 -504 47 -678 19z"/>
<path d="M13432 8321 c-204 -51 -370 -192 -423 -362 -23 -75 -25 -198 -3 -283
20 -79 86 -213 127 -258 27 -29 45 -38 106 -52 150 -34 355 -15 473 45 164 83
290 222 338 378 25 79 27 214 4 292 -19 65 -78 181 -105 205 -56 50 -367 71
-517 35z m129 -249 c103 -114 149 -286 118 -434 -12 -53 -51 -142 -68 -152
-18 -12 -107 62 -147 122 -100 149 -122 368 -53 528 l19 45 44 -30 c24 -17 63
-52 87 -79z"/>
<path d="M17847 8324 c-184 -40 -321 -137 -389 -276 -67 -137 -64 -273 9 -427
45 -95 149 -202 244 -249 l66 -33 254 11 c140 6 294 17 344 23 l89 12 8 39 c9
44 27 427 21 439 -2 4 -92 7 -199 7 l-194 0 0 -22 c0 -13 5 -94 11 -181 8
-103 9 -161 2 -168 -15 -15 -93 50 -136 113 -87 126 -119 271 -98 439 7 55 14
106 17 114 7 18 51 25 162 25 l95 0 -7 -42 c-3 -24 -9 -54 -12 -67 -7 -24 -7
-24 56 -18 35 4 89 7 121 7 58 0 59 0 74 38 26 60 59 181 53 188 -4 3 -55 14
-115 25 -134 23 -375 24 -476 3z"/>
<path d="M11693 8278 c20 -80 29 -302 23 -555 -3 -153 -7 -291 -8 -308 l-3
-30 202 -3 c185 -2 203 -1 211 15 13 24 39 215 53 383 6 74 12 136 13 137 4 5
114 -26 151 -41 19 -8 38 -23 42 -33 6 -15 -7 -230 -24 -405 l-5 -58 215 0
c119 0 218 4 221 9 9 14 34 187 50 341 19 187 31 463 22 523 l-7 47 -239 0
-238 0 4 -57 c2 -32 6 -100 8 -152 6 -108 18 -103 -116 -44 l-88 38 0 107 0
108 -246 0 -246 0 5 -22z"/>
<path d="M14206 8255 c-30 -224 -4 -634 54 -837 l11 -38 199 0 200 0 0 135 c0
74 4 135 9 135 5 0 60 9 123 19 126 22 252 56 376 103 l82 31 0 86 c0 89 -21
266 -41 358 l-12 53 -497 0 -497 0 -7 -45z m578 -205 c36 -68 66 -158 66 -196
0 -24 -39 -41 -139 -63 l-44 -10 7 97 c3 53 11 141 18 195 l11 98 23 -28 c13
-15 39 -57 58 -93z"/>
<path d="M15464 8283 c3 -10 10 -103 17 -206 13 -201 7 -536 -11 -622 -6 -27
-8 -55 -5 -62 3 -10 55 -13 214 -13 190 0 211 2 219 18 25 46 62 494 62 745
l0 157 -251 0 c-234 0 -250 -1 -245 -17z"/>
<path d="M16104 8283 c4 -9 30 -54 58 -101 46 -76 52 -93 60 -170 12 -102 3
-408 -16 -535 -6 -48 -10 -90 -7 -92 2 -3 51 -5 107 -5 l103 0 7 34 c3 19 4
133 2 253 l-3 218 95 -94 c149 -149 359 -308 506 -385 45 -24 61 -27 130 -24
l79 3 7 40 c12 70 21 555 13 718 l-7 157 -109 0 c-60 0 -109 -3 -109 -7 0 -5
9 -53 20 -108 21 -105 39 -355 25 -355 -4 0 -23 11 -42 26 -116 88 -264 243
-350 367 l-55 77 -260 0 c-238 0 -260 -1 -254 -17z"/>
</g>
</svg>
